<svg width="46" height="72" viewBox="0 0 46 72" fill="none" xmlns="http://www.w3.org/2000/svg">
<path d="M13.3177 13.7748C13.2944 7.7986 13.0631 4.8249 10.7273 2.47099C11.0404 5.42267 10.6686 7.61946 10.4918 9.53586C7.20249 12.5417 5.97087 13.5626 4.36886 17.0717C4.1155 18.5425 4.11607 19.3691 4.36886 20.8397C5.34667 23.6342 5.89397 24.4667 7.6658 26.0206V26.727C8.8933 34.6919 11.0859 37.231 17.3211 38.7373V39.6793H10.9627C7.90936 37.6782 6.96151 35.7496 6.72382 30.7305C4.69695 32.5299 3.56301 34.9005 1.54292 39.9148C0.747327 43.4509 0.894458 45.4713 1.54292 49.0991C3.15911 54.9799 4.73255 58.1524 8.13679 63.6999C6.2337 58.1585 5.25733 55.0566 4.36886 49.5701C4.26913 48.2579 4.64075 47.6748 6.01739 49.3346C8.17017 52.7508 10.0755 54.6294 13.3177 58.519C11.1396 54.3812 10.0057 52.0459 9.07878 47.6862C8.78111 46.4445 8.79711 45.8323 9.07878 44.8602C9.44522 44.4308 9.65575 44.4461 10.0208 44.8602C11.1178 46.1861 11.441 47.04 11.9047 48.6281C11.7862 46.7841 11.8458 45.7518 12.3757 43.9182C12.9386 42.4729 13.4765 41.8719 14.7307 41.0923C15.6468 40.9329 16.0579 40.9342 16.6146 41.0923C14.7454 46.7928 13.5222 48.5264 11.4337 52.3961H12.3757L12.3798 52.4256C12.4797 53.143 12.5369 53.5541 12.3757 54.28C12.9663 55.7719 13.768 56.4193 15.1946 57.5712L15.2017 57.577C15.5056 57.2276 15.697 57.0249 16.1436 56.635C16.5118 56.3912 16.7181 56.4296 17.0856 56.635C17.9953 57.8555 18.3242 58.5761 18.4986 59.9319V63.2289C17.6887 64.7117 17.0775 65.347 15.6727 66.0548C15.2418 66.6067 15.2743 66.9159 15.6727 67.4678H21.3246C22.0182 67.0604 22.3384 66.6622 22.7375 65.5838C22.5243 63.0449 22.2217 61.6521 22.7375 58.99C23.1057 58.8779 23.3109 58.8327 23.6795 58.99C24.376 59.5854 24.4772 61.3373 24.6215 64.6419C25.0059 65.8859 25.4477 66.4918 26.5055 67.4678H28.8604C30.4175 67.1557 31.2171 66.9531 31.2154 66.0548C28.793 64.4078 27.9166 63.515 27.9184 62.7579C27.9203 62.0008 27.8663 61.8165 27.9184 60.6384C30.7701 61.28 32.175 62.0713 34.0413 64.8773C33.7506 68.3614 32.5765 69.0812 30.0379 69.8228C28.6346 69.8221 28.0345 69.5815 27.4474 68.4098C27.3425 69.5541 27.2754 70.1714 26.9764 70.7647H29.0959V71.0002H31.4509L30.5089 70.2937C33.3899 69.7512 34.8121 69.1799 34.9833 64.8773L28.3894 55.693L30.9799 57.3415L33.0993 54.9865V52.3961L34.5123 52.1606C30.7716 48.2198 29.4338 45.7606 27.9184 41.0923C31.6467 41.8867 33.0091 43.2735 33.5703 48.1572C33.8389 46.4474 34.2422 45.653 35.9253 44.8602L37.1028 45.0957L37.3383 48.1572L33.5703 59.2255C37.1497 53.5187 39.1425 50.3652 41.1062 49.5701L41.8127 50.0411C41.7411 54.216 40.5898 57.9547 39.4577 63.4644C41.0957 60.0028 41.9768 58.3247 44.1676 50.9831C44.7208 48.7869 44.9114 47.6087 45.1096 45.5667C44.9561 42.8046 44.6386 41.0923 44.1676 40.3858C43.6966 39.6793 41.8245 33.4257 38.0447 29.7885C38.5247 32.4603 38.5492 33.7653 38.0447 35.6759C36.5641 38.5517 35.6671 39.1718 34.0413 39.9148C31.0619 40.1104 29.5566 40.1214 27.2119 39.9148C26.1442 38.9688 26.2563 38.5585 26.27 37.7953C30.507 35.6549 31.5608 33.2376 33.0993 28.611C33.3336 26.4355 33.3438 25.153 33.0993 22.7236C34.4845 21.5654 36.1608 19.6622 36.3963 18.9557C36.6318 18.2492 36.719 15.7251 36.3963 13.7748C35.8055 11.6232 32.1574 7.6519 32.1574 7.6519C32.1574 7.6519 31.8028 4.20688 32.1574 2C30.0249 3.95721 29.9388 7.1109 29.8024 12.8328C30.4964 12.2981 30.9 11.9231 31.4509 12.1263C32.6645 12.6416 33.0276 13.0152 33.3348 13.7748C33.447 14.4114 33.4627 14.8115 33.3348 15.6587C31.1059 16.0082 30.44 15.8974 29.3314 15.6587C27.4605 14.5616 26.4507 13.933 23.915 13.0683C21.9838 12.8566 20.901 12.8934 18.9696 13.0683C15.7155 13.727 14.0777 14.6495 11.4337 16.6007C9.2885 16.7815 9.06918 16.2136 10.7273 13.7748C11.7321 13.3534 12.3128 13.3498 13.3177 13.7748Z" fill="#731504" stroke="black"/>
<path d="M29.8025 30.495C29.5175 29.1617 29.1148 28.8235 27.9186 28.14C26.4231 28.1756 25.9496 28.7559 25.5636 30.495C25.7063 32.1582 26.0535 32.8814 27.4476 33.5564C28.6074 33.0975 29.3386 32.6564 29.8025 30.495Z" fill="#D9D9D9" stroke="black"/>
<path d="M24.6216 35.9114C22.0005 35.6331 20.5648 35.6845 18.0277 35.9114C18.1558 36.6227 18.5154 36.9134 19.4407 37.3244C20.9124 37.5154 21.7363 37.5604 23.2086 37.3244C24.1625 36.8616 24.5162 36.5621 24.6216 35.9114Z" fill="#D9D9D9" stroke="black"/>
<path d="M17.5567 30.2595C17.0975 28.0209 16.5509 27.1148 14.7307 26.4915C12.4887 27.1499 12.0402 28.0962 11.9048 30.2595C12.3625 32.4221 12.9769 33.1615 14.7307 33.5564C16.5383 33.2253 17.1397 32.4798 17.5567 30.2595Z" fill="#D9D9D9" stroke="black"/>
</svg>
