<svg width="42" height="33" viewBox="0 0 42 33" fill="none" xmlns="http://www.w3.org/2000/svg">
<path d="M5.44444 1H36.5556C37.7343 1 38.8648 1.46658 39.6983 2.2971C40.5317 3.12762 41 4.25404 41 5.42857V12.0714C39.8213 12.0714 38.6908 12.538 37.8573 13.3685C37.0238 14.199 36.5556 15.3255 36.5556 16.5C36.5556 17.6745 37.0238 18.801 37.8573 19.6315C38.6908 20.462 39.8213 20.9286 41 20.9286V27.5714C41 28.746 40.5317 29.8724 39.6983 30.7029C38.8648 31.5334 37.7343 32 36.5556 32H5.44444C4.2657 32 3.13524 31.5334 2.30175 30.7029C1.46825 29.8724 1 28.746 1 27.5714V20.9286C2.17874 20.9286 3.3092 20.462 4.1427 19.6315C4.97619 18.801 5.44444 17.6745 5.44444 16.5C5.44444 15.3255 4.97619 14.199 4.1427 13.3685C3.3092 12.538 2.17874 12.0714 1 12.0714V5.42857C1 4.25404 1.46825 3.12762 2.30175 2.2971C3.13524 1.46658 4.2657 1 5.44444 1Z" stroke="white" stroke-width="2" stroke-linecap="round" stroke-linejoin="round"/>
</svg>
